Coordinates
version=1
nRows=34
nColumns=38
inDegrees=no

Units are S.I. units (second, meters, Newtons, ...)
If the header above contains a line with 'inDegrees', this indicates whether rotational values are in degrees (yes) or radians (no).

endheader
time	pelvis_tilt	pelvis_list	pelvis_rotation	pelvis_tx	pelvis_ty	pelvis_tz	hip_flexion_r	hip_adduction_r	hip_rotation_r	knee_angle_r	ankle_angle_r	subtalar_angle_r	mtp_angle_r	hip_flexion_l	hip_adduction_l	hip_rotation_l	knee_angle_l	ankle_angle_l	subtalar_angle_l	mtp_angle_l	lumbar_extension	lumbar_bending	lumbar_rotation	arm_flex_r	arm_add_r	arm_rot_r	elbow_flex_r	pro_sup_r	wrist_flex_r	wrist_dev_r	arm_flex_l	arm_add_l	arm_rot_l	elbow_flex_l	pro_sup_l	wrist_flex_l	wrist_dev_l
0	1.75141	1.40328	-0.184034	0.801423	-0.418512	0.991248	0.333216	0.0645117	-0.457033	0.394769	-0.0036355	0	0	-0.135591	-0.274466	-0.0787241	0.732203	0.00425097	0	0	-0.239571	0.181192	0.0415849	-0.0461182	-0.237989	0.123758	0.355181	1.34595	0	0	0.0298246	-0.174403	0.165247	0.243262	1.5708	0	0
0.01	1.69907	1.39832	-0.126899	0.80398	-0.410045	0.991358	0.334125	0.0744048	-0.456289	0.395433	0.000846969	0	0	-0.095037	-0.283303	-0.0560363	0.787355	-0.0319015	0	0	-0.229993	0.188732	0.0358483	-0.0491183	-0.240222	0.126183	0.362438	1.34946	0	0	0.0246595	-0.177744	0.183924	0.249848	1.55427	0	0
0.02	1.75225	1.37251	-0.166488	0.805374	-0.401051	0.994335	0.306753	0.103652	-0.457604	0.385334	-0.00198481	0	0	-0.0796049	-0.311223	-0.0299692	0.833024	-0.0666692	0	0	-0.245859	0.218336	0.0285584	-0.0489075	-0.247199	0.131056	0.372007	1.34944	0	0	0.0234752	-0.175757	0.197357	0.255767	1.53599	0	0
0.03	1.73655	1.3667	-0.146592	0.807866	-0.392488	0.995225	0.298284	0.114863	-0.456785	0.381329	0.00479207	0	0	-0.0468578	-0.317711	-0.00813124	0.881769	-0.0979311	0	0	-0.243281	0.225461	0.0250319	-0.051032	-0.249349	0.135836	0.379835	1.3453	0	0	0.0166867	-0.180904	0.2255	0.270029	1.50416	0	0
0.04	1.74302	1.36524	-0.146937	0.810212	-0.38467	0.996858	0.285779	0.120416	-0.456696	0.376048	0.0103348	0	0	-0.0159787	-0.32326	0.00184801	0.928204	-0.129423	0	0	-0.246013	0.226391	0.021366	-0.0485061	-0.24793	0.135934	0.380449	1.34199	0	0	0.00293575	-0.205758	0.360905	0.321027	1.33863	0	0
0.05	1.66642	1.37586	-0.0774974	0.813655	-0.376206	0.99537	0.294586	0.115597	-0.453426	0.379726	0.0247063	0	0	0.0285316	-0.30474	0.0282616	0.979303	-0.137086	0	0	-0.225329	0.214207	0.0249753	-0.0531306	-0.245818	0.136405	0.381466	1.34263	0	0	-0.00450113	-0.211486	0.367842	0.329623	1.32935	0	0
0.06	1.66359	1.37459	-0.074343	0.816056	-0.368156	0.996581	0.283796	0.121573	-0.450369	0.374569	0.026422	0	0	0.0566318	-0.302688	0.0443181	1.02323	-0.138323	0	0	-0.224806	0.215007	0.0267452	-0.0504921	-0.244863	0.135994	0.376709	1.34266	0	0	-0.00631958	-0.215713	0.388366	0.338869	1.30025	0	0
0.07	1.67378	1.37402	-0.0865626	0.818529	-0.360277	0.998075	0.269359	0.127826	-0.444334	0.367025	0.0272685	0	0	0.0796354	-0.300055	0.05523	1.06244	-0.129929	0	0	-0.227883	0.214364	0.0317878	-0.0466073	-0.243173	0.131566	0.370237	1.34245	0	0	-0.00556449	-0.218228	0.404059	0.343567	1.27566	0	0
0.08	1.683	1.37875	-0.0899274	0.820895	-0.353199	0.999061	0.262582	0.135825	-0.428695	0.365875	0.0231472	0	0	0.111885	-0.292671	0.0812812	1.1179	-0.0598272	0	0	-0.229327	0.208333	0.0315532	-0.0428616	-0.239637	0.126141	0.362782	1.34397	0	0	-0.000398164	-0.220435	0.413429	0.343299	1.25819	0	0
0.09	1.69771	1.37636	-0.115214	0.823165	-0.345115	1.0011	0.239982	0.135998	-0.433177	0.351333	0.0319569	0	0	0.123617	-0.289586	0.0728706	1.13069	-0.100586	0	0	-0.234657	0.209519	0.0423952	-0.0379988	-0.239605	0.125291	0.357088	1.34539	0	0	0.000490779	-0.218413	0.416766	0.342059	1.25292	0	0
0.1	1.75283	1.3707	-0.167117	0.825754	-0.337599	1.00347	0.215538	0.156402	-0.421837	0.335814	0.0163031	0	0	0.137244	-0.295208	0.08107	1.15745	-0.0886383	0	0	-0.247926	0.212403	0.0476955	-0.0331722	-0.237112	0.120259	0.348966	1.35367	0	0	0.00766062	-0.218149	0.422705	0.340286	1.24301	0	0
0.11	1.83516	1.37714	-0.254273	0.828491	-0.330479	1.00692	0.182804	0.155048	-0.410384	0.318091	0.0127854	0	0	0.143297	-0.283705	0.0799165	1.17776	-0.0908709	0	0	-0.266485	0.19872	0.0542244	-0.0240889	-0.231489	0.11714	0.339627	1.35666	0	0	0.0133939	-0.220448	0.423286	0.34074	1.24198	0	0
0.12	1.91791	1.35577	-0.397061	0.8366	-0.324739	1.01125	0.129151	0.186871	-0.340357	0.281182	-0.00148841	0	0	0.108773	-0.307314	0.0224819	1.17958	-0.0874508	0	0	-0.310877	0.195473	0.118887	-0.0111454	-0.23239	0.117108	0.340654	1.36784	0	0	0.0205309	-0.225315	0.439694	0.35305	1.22688	0	0
0.13	1.79568	1.38319	-0.223065	0.832787	-0.31542	1.00697	0.170086	0.162104	-0.3837	0.309654	0.0289835	0	0	0.192962	-0.268207	0.0938798	1.2165	-0.0756018	0	0	-0.252227	0.193628	0.0622608	-0.026345	-0.232826	0.114993	0.339668	1.37244	0	0	0.00906394	-0.223165	0.438238	0.350452	1.22577	0	0
0.14	1.78455	1.38833	-0.212431	0.83458	-0.308028	1.0075	0.164953	0.15935	-0.386208	0.310836	0.0382069	0	0	0.21828	-0.257671	0.102535	1.23074	-0.07542	0	0	-0.246363	0.188902	0.0613317	-0.025761	-0.232524	0.116085	0.339349	1.37603	0	0	0.00792378	-0.223958	0.435555	0.352054	1.22509	0	0
0.15	1.80387	1.39136	-0.234464	0.836476	-0.300629	1.00854	0.151047	0.159201	-0.381484	0.305787	0.0398817	0	0	0.234215	-0.249428	0.106555	1.23815	-0.0751377	0	0	-0.248027	0.18447	0.0634041	-0.0248294	-0.232827	0.115886	0.34121	1.37891	0	0	0.00767767	-0.225166	0.433136	0.354888	1.22493	0	0
0.16	1.82477	1.39375	-0.257296	0.838313	-0.293263	1.00952	0.136881	0.159545	-0.375679	0.300393	0.0407112	0	0	0.249664	-0.241924	0.110316	1.24308	-0.071929	0	0	-0.249766	0.180651	0.0649102	-0.0247245	-0.233439	0.116304	0.344284	1.38206	0	0	0.0073126	-0.22677	0.432358	0.357844	1.22577	0	0
0.17	1.84753	1.39583	-0.28142	0.840132	-0.285943	1.01049	0.122749	0.159962	-0.369479	0.295698	0.0427564	0	0	0.264616	-0.234742	0.113809	1.24597	-0.0659264	0	0	-0.251732	0.177017	0.0661095	-0.0242822	-0.233675	0.116064	0.347149	1.38386	0	0	0.00759016	-0.228508	0.432137	0.360312	1.22654	0	0
0.18	1.87883	1.39871	-0.313505	0.841819	-0.278825	1.01157	0.107731	0.158821	-0.36345	0.291274	0.0459044	0	0	0.276577	-0.224419	0.119041	1.24432	-0.0593544	0	0	-0.255253	0.172133	0.0667756	-0.0223973	-0.233046	0.114757	0.34861	1.38385	0	0	0.00926671	-0.230301	0.432174	0.361807	1.22691	0	0
0.19	1.91778	1.40172	-0.3527	0.843423	-0.271865	1.01273	0.0917662	0.156766	-0.357638	0.28647	0.0492414	0	0	0.286406	-0.214145	0.12244	1.23794	-0.0520619	0	0	-0.26019	0.166668	0.0671083	-0.019283	-0.231947	0.114525	0.348123	1.38388	0	0	0.0124341	-0.231671	0.432544	0.361944	1.22666	0	0
0.2	2.03661	1.38427	-0.475089	0.84545	-0.26374	1.01631	0.033289	0.177183	-0.335439	0.240396	0.0316711	0	0	0.273409	-0.223441	0.119822	1.22903	-0.0497847	0	0	-0.288893	0.172561	0.0757696	-0.0137128	-0.230992	0.113484	0.344941	1.38813	0	0	0.0177645	-0.231526	0.432394	0.360048	1.22648	0	0
0.21	2.12949	1.40137	-0.570398	0.847358	-0.257489	1.01776	0.0281039	0.151325	-0.333139	0.260122	0.0464063	0	0	0.28224	-0.195794	0.113727	1.21617	-0.0498282	0	0	-0.296154	0.145637	0.0737931	-0.00576297	-0.223891	0.115149	0.338279	1.38868	0	0	0.0239597	-0.236788	0.432979	0.359085	1.2264	0	0
0.22	2.18615	1.40533	-0.627039	0.84868	-0.250783	1.01884	0.0130176	0.143981	-0.331903	0.258079	0.0519191	0	0	0.28726	-0.182186	0.114558	1.19811	-0.0409618	0	0	-0.301588	0.136562	0.0726757	0.000770983	-0.220833	0.114467	0.331544	1.38872	0	0	0.0291241	-0.237269	0.433684	0.355537	1.2265	0	0
0.23	2.24231	1.40719	-0.68236	0.850081	-0.244267	1.02001	-0.00403496	0.139253	-0.329025	0.252072	0.0535863	0	0	0.289594	-0.169223	0.118594	1.17495	-0.0310213	0	0	-0.308254	0.129018	0.0712735	0.00795973	-0.217288	0.112909	0.324887	1.38879	0	0	0.0356977	-0.23747	0.433838	0.350457	1.22684	0	0
0.24	2.23893	1.40155	-0.680621	0.851645	-0.236556	1.02002	-0.0209804	0.148221	-0.323665	0.241969	0.0564855	0	0	0.305154	-0.180832	0.104766	1.16623	-0.0261202	0	0	-0.307564	0.134409	0.0743779	0.00935977	-0.216431	0.107234	0.320092	1.39517	0	0	0.0375262	-0.23496	0.430858	0.344122	1.23066	0	0
0.25	2.26507	1.40096	-0.706768	0.852951	-0.22961	1.02058	-0.0367746	0.148645	-0.318899	0.234333	0.0601728	0	0	0.311865	-0.17783	0.100403	1.14323	-0.0201886	0	0	-0.309933	0.13228	0.0745384	0.0127048	-0.214915	0.107905	0.316627	1.39703	0	0	0.0416477	-0.234368	0.431272	0.339264	1.23127	0	0
0.26	2.2948	1.40016	-0.736685	0.854195	-0.222655	1.0211	-0.0533077	0.148447	-0.314471	0.226777	0.0645802	0	0	0.316717	-0.175104	0.0938975	1.1173	-0.0151669	0	0	-0.312936	0.129624	0.0748218	0.0159344	-0.213314	0.108642	0.31324	1.39921	0	0	0.0466921	-0.233625	0.432225	0.333264	1.23233	0	0
0.27	2.26439	1.39623	-0.707592	0.85538	-0.214745	1.02014	-0.0647079	0.157803	-0.308597	0.219364	0.0687477	0	0	0.325479	-0.179789	0.0925856	1.09138	-0.00128628	0	0	-0.306432	0.13769	0.0775636	0.0134714	-0.215105	0.108219	0.314041	1.40084	0	0	0.0476193	-0.230687	0.432039	0.327182	1.23354	0	0
0.28	2.28617	1.39566	-0.729944	0.85658	-0.207959	1.02045	-0.0804109	0.158194	-0.304923	0.211141	0.0723566	0	0	0.330058	-0.179027	0.0825513	1.06186	0.0027352	0	0	-0.308299	0.135672	0.0784833	0.0155085	-0.214007	0.108359	0.313228	1.40158	0	0	0.0516809	-0.230477	0.43114	0.323256	1.23417	0	0
0.29	2.30911	1.39497	-0.753025	0.857718	-0.200943	1.02066	-0.0958817	0.158346	-0.300646	0.203683	0.0765632	0	0	0.333806	-0.179469	0.0694612	1.03074	0.00502713	0	0	-0.310423	0.133407	0.0787972	0.0174066	-0.212587	0.108721	0.312255	1.40274	0	0	0.0550986	-0.231268	0.430301	0.320839	1.23562	0	0
0.3	2.33185	1.39442	-0.775642	0.858799	-0.193984	1.02084	-0.110854	0.158173	-0.296799	0.196626	0.0813988	0	0	0.336323	-0.179132	0.05681	0.998048	0.00814228	0	0	-0.312638	0.130946	0.07863	0.0196619	-0.210957	0.107475	0.311699	1.40265	0	0	0.058479	-0.232405	0.430748	0.318662	1.23814	0	0
0.31	2.35443	1.39381	-0.797677	0.859822	-0.18706	1.02099	-0.125664	0.157952	-0.293375	0.189661	0.0853385	0	0	0.338058	-0.178573	0.0434658	0.963742	0.0102965	0	0	-0.31509	0.128465	0.0781285	0.0219995	-0.20928	0.106513	0.310959	1.40256	0	0	0.0619815	-0.233736	0.432274	0.316704	1.24153	0	0
0.32	2.37392	1.39406	-0.816756	0.860737	-0.180146	1.021	-0.138706	0.157054	-0.29026	0.184131	0.08982	0	0	0.340211	-0.177027	0.030009	0.928537	0.0134132	0	0	-0.31652	0.125772	0.0777746	0.0240572	-0.207818	0.1073	0.309627	1.40341	0	0	0.0652013	-0.235236	0.432624	0.31575	1.24475	0	0
0.33	2.39017	1.3952	-0.832862	0.861585	-0.173235	1.02086	-0.150006	0.155575	-0.287125	0.179808	0.0958213	0	0	0.342541	-0.174558	0.0165549	0.892098	0.0159557	0	0	-0.316723	0.122912	0.0772626	0.0261451	-0.206552	0.108976	0.308644	1.40458	0	0	0.0676457	-0.2371	0.431864	0.316277	1.24767	0	0
